<svg width="200" height="200" viewBox="0 0 200 200" fill="none" xmlns="http://www.w3.org/2000/svg">
  <rect width="200" height="200" fill="#F3F4F6"/>
  <path d="M100 60C88.9543 60 80 68.9543 80 80V120C80 131.046 88.9543 140 100 140C111.046 140 120 131.046 120 120V80C120 68.9543 111.046 60 100 60Z" fill="#D1D5DB"/>
  <path d="M70 100C70 83.4315 83.4315 70 100 70C116.569 70 130 83.4315 130 100C130 116.569 116.569 130 100 130C83.4315 130 70 116.569 70 100Z" stroke="#9CA3AF" stroke-width="2" stroke-dasharray="4 4"/>
  <text x="100" y="160" text-anchor="middle" fill="#6B7280" font-family="Arial, sans-serif" font-size="12">Imagem do produto</text>
</svg>